
<svg xmlns="http://www.w3.org/2000/svg" xmlns:xlink="http://www.w3.org/1999/xlink" data-name="Layer 1" preserveAspectRatio="xMidYMid meet" version="1.0" viewBox="0.2 0.1 499.8 499.9" zoomAndPan="magnify" style="fill: rgb(42, 64, 45);" original_string_length="26922"><g id="__id39_s9osm1koly"><path d="M36.26,50.83a10.35,10.35,0,1,0-1.06-1.69A10.38,10.38,0,0,0,36.26,50.83Zm8.24-16.21c4.83,0,8,3.06,8,8a9.89,9.89,0,0,1-9.88,9.88c-4.75,0-8-3.11-8-8A9.89,9.89,0,0,1,44.51,34.63Z" style="fill: inherit;"/></g><g id="__id40_s9osm1koly"><path d="M236.77,16.14v-.3a7.86,7.86,0,0,0-.31-1.93,8,8,0,0,0-1.33-2.65,8.36,8.36,0,0,0-1.23-1.3,8.61,8.61,0,0,0-.77-.58l-.21-.13-.21-.13c-.15-.08-.29-.17-.44-.24L232,8.75l-.24-.1-.12-.05-.12,0-.24-.09-.25-.08-.25-.08-.52-.13L230,8.1l-.27,0-.13,0-.14,0-.27,0a8.82,8.82,0,0,0-1.11,0,8.53,8.53,0,0,0-4.28,1.35,8.68,8.68,0,0,0-3,3.28,8.54,8.54,0,0,0,0,7.9,8.68,8.68,0,0,0,3,3.28,8.53,8.53,0,0,0,4.28,1.35,8.84,8.84,0,0,0,1.11,0l.27,0,.14,0,.13,0,.27,0,.26-.06.52-.13.25-.08.25-.08.24-.09.12,0,.12-.05.24-.1.23-.11c.15-.07.3-.16.44-.24l.21-.13.21-.13a8.63,8.63,0,0,0,.77-.58,8.36,8.36,0,0,0,1.24-1.3,8,8,0,0,0,1.33-2.65,7.86,7.86,0,0,0,.31-1.93v-.53l0,.22,0,.3a7.86,7.86,0,0,1-.49,1.85,7.94,7.94,0,0,1-.59,1.18,7.73,7.73,0,0,1-.91,1.2,7.87,7.87,0,0,1-1.25,1.1,8,8,0,0,1-.74.47l-.2.1-.2.1-.42.18-.21.08-.22.07-.11,0-.11,0-.22.06-.23.06-.23.05-.46.08-.23,0-.24,0h-.48a7.89,7.89,0,0,1-1-.05,7.43,7.43,0,0,1-5.42-3.4c-.08-.13-.16-.25-.23-.39l-.11-.2-.1-.2a7.23,7.23,0,0,1-.55-1.61,7.52,7.52,0,0,1,0-3.16,7.23,7.23,0,0,1,.55-1.61l.1-.2.11-.2c.07-.13.15-.26.23-.39a7.4,7.4,0,0,1,5.42-3.4,7.86,7.86,0,0,1,1-.05h.48l.24,0,.23,0,.46.08.23.05.23.06.22.06.11,0,.11,0,.22.07.21.08.42.18.2.1.2.1a8,8,0,0,1,.74.47,7.87,7.87,0,0,1,1.25,1.1,7.74,7.74,0,0,1,.91,1.2A7.94,7.94,0,0,1,236.2,14a7.85,7.85,0,0,1,.49,1.85l0,.3,0,.22v-.22Z" style="fill: inherit;"/></g><g id="__id41_s9osm1koly"><path d="M257.61,16.29V16.1a5,5,0,0,0-.16-1.24,5.14,5.14,0,0,0-.81-1.72,5.36,5.36,0,0,0-.78-.86,5.2,5.2,0,0,0-1-.73,5.32,5.32,0,0,0-1.28-.49,5.61,5.61,0,0,0-.7-.12,5.74,5.74,0,0,0-.73,0,5.59,5.59,0,0,0-2.84.85,5.71,5.71,0,0,0-2,2.16,5.6,5.6,0,0,0,0,5.27,5.71,5.71,0,0,0,2,2.16,5.59,5.59,0,0,0,2.84.85,5.75,5.75,0,0,0,.73,0,5.63,5.63,0,0,0,.7-.12,5.49,5.49,0,0,0,.66-.21l.31-.13.15-.07.15-.08a5.19,5.19,0,0,0,1-.73,5.36,5.36,0,0,0,.78-.86,5.13,5.13,0,0,0,.81-1.72,5,5,0,0,0,.16-1.24v-.33l0,.14,0,.19a5,5,0,0,1-.35,1.15,4.84,4.84,0,0,1-1.77,2.11,5,5,0,0,1-.46.27,4.86,4.86,0,0,1-.51.22l-.13,0-.13,0-.27.07a4.66,4.66,0,0,1-.56.1,4.73,4.73,0,0,1-.57,0,4.8,4.8,0,0,1-.58,0,4.45,4.45,0,0,1-3.43-2.56,4.57,4.57,0,0,1,0-3.76,4.45,4.45,0,0,1,3.43-2.56,4.78,4.78,0,0,1,.58,0,4.72,4.72,0,0,1,.57,0,4.51,4.51,0,0,1,1.1.26,4.85,4.85,0,0,1,.51.22,4.94,4.94,0,0,1,.46.27A4.84,4.84,0,0,1,257.19,15a5,5,0,0,1,.35,1.15l0,.19,0,.14v-.14Z" style="fill: inherit;"/></g><g id="__id42_s9osm1koly"><path d="M281,16.32v-.17a4.33,4.33,0,0,0-.13-1.09,4.51,4.51,0,0,0-.7-1.52,4.72,4.72,0,0,0-.68-.77,4.63,4.63,0,0,0-.92-.65,4.7,4.7,0,0,0-1.13-.44,5,5,0,0,0-.62-.11,5.09,5.09,0,0,0-.64,0,5,5,0,0,0-2.53.74,5.08,5.08,0,0,0-1.8,1.92,5,5,0,0,0,0,4.7,5.08,5.08,0,0,0,1.8,1.92,5,5,0,0,0,2.53.74,5.1,5.1,0,0,0,.64,0,5,5,0,0,0,.62-.11,4.7,4.7,0,0,0,1.13-.44,4.62,4.62,0,0,0,.92-.65,4.72,4.72,0,0,0,.68-.77,4.51,4.51,0,0,0,.7-1.53,4.33,4.33,0,0,0,.13-1.09v-.17l0,.16a4.33,4.33,0,0,1-.31,1,4.23,4.23,0,0,1-.87,1.26,4.14,4.14,0,0,1-1.54,1,3.89,3.89,0,0,1-1,.21,4.08,4.08,0,0,1-.49,0,4.13,4.13,0,0,1-.5,0,3.82,3.82,0,0,1-2.92-2.21,3.94,3.94,0,0,1,0-3.19,3.82,3.82,0,0,1,2.92-2.21,4.12,4.12,0,0,1,.5,0,4.06,4.06,0,0,1,.49,0,3.89,3.89,0,0,1,.95.21,4.14,4.14,0,0,1,1.54,1,4.23,4.23,0,0,1,.87,1.26,4.33,4.33,0,0,1,.31,1l0,.16v0Z" style="fill: inherit;"/></g><g id="__id43_s9osm1koly"><path d="M291.5 15.81H500V17.28H291.5z" style="fill: inherit;"/></g><g id="__id44_s9osm1koly"><path d="M57.41,40.12c0,.1,0,.21.06.31l.06.32.07.33,0,.17,0,.17.09.34.1.34.05.17.06.17.12.35q.25.71.58,1.45t.76,1.48a18.67,18.67,0,0,0,2.09,2.93,20.1,20.1,0,0,0,2.84,2.69,22.09,22.09,0,0,0,11.95,4.55,21.59,21.59,0,0,0,2.25,0c.38,0,.74,0,1.11-.06l.28,0,.27,0,.55-.06A33.28,33.28,0,0,0,85.06,55a40.51,40.51,0,0,0,4-1.22,52.53,52.53,0,0,0,7-3.14c2.07-1.11,4.26-2.44,6.49-3.91,1.11-.73,2.24-1.5,3.37-2.29l3.41-2.39c2.28-1.59,4.6-3.16,7-4.54a45.57,45.57,0,0,1,7.13-3.44,27.6,27.6,0,0,1,3.5-1l.86-.18.85-.14.21,0,.21,0,.42,0,.41,0,.2,0,.2,0,.8-.06.78,0h1.49c1,0,1.86.09,2.67.2l.6.07.56.09.53.08.25,0,.24,0,.46.09.43.09.74.17.59.15.43.11.35.09-.34-.13-.42-.16-.57-.21-.73-.25-.42-.13-.46-.14-.24-.07-.25-.07-.53-.14-.56-.14-.6-.13c-.81-.19-1.72-.34-2.7-.47l-.75-.08-.39,0-.39,0-.81,0h-2.35l-.22,0-.9.06-.92.1a28.28,28.28,0,0,0-3.8.76,44.91,44.91,0,0,0-7.73,3c-2.55,1.25-5,2.7-7.45,4.18-1.2.74-2.38,1.48-3.54,2.2s-2.3,1.43-3.42,2.11c-2.23,1.36-4.37,2.59-6.35,3.65a65.77,65.77,0,0,1-6.52,3.09c-1.18.47-2.4.91-3.66,1.28a32.83,32.83,0,0,1-3.87.91l-.49.08-.25,0-.25,0c-.33,0-.67.09-1,.12a19.6,19.6,0,0,1-2,.09,20.44,20.44,0,0,1-11-3.28,18.94,18.94,0,0,1-2.83-2.24,17.76,17.76,0,0,1-2.19-2.54q-.46-.66-.84-1.32t-.68-1.31l-.14-.32L58.65,42l-.07-.16-.13-.32-.12-.32-.06-.16-.05-.16-.1-.31-.09-.3c0-.1-.06-.2-.09-.3a16.89,16.89,0,0,1-.45-2.15c0-.32-.08-.62-.1-.9s0-.53,0-.76,0-.22,0-.32v-1.1l0,.36,0,.2,0,.24,0,.28c0,.1,0,.21,0,.32s0,.49,0,.77,0,.59,0,.92A17,17,0,0,0,57.41,40.12Z" style="fill: inherit;"/></g><g id="__id45_s9osm1koly"><path d="M144.27,35.18l-.6-.08-.76-.09-.44,0-.47,0-.25,0-.26,0-.54,0-.58,0h-.61c-.84,0-1.75,0-2.74.12l-.75.08-.39,0-.39.06-.8.13-.82.16-.21,0-.21,0-.42.1-.43.1-.21.05-.21.06-.87.25-.87.3a28.28,28.28,0,0,0-3.55,1.55A44.91,44.91,0,0,0,120,42.51c-2.23,1.77-4.35,3.72-6.39,5.67-1,1-2,2-3,2.91s-1.94,1.89-2.89,2.79c-1.89,1.8-3.72,3.46-5.42,4.92a65.77,65.77,0,0,1-5.72,4.41c-1.05.71-2.15,1.4-3.3,2a32.83,32.83,0,0,1-3.58,1.71l-.47.18-.23.09-.24.08c-.31.11-.63.23-.94.33a19.6,19.6,0,0,1-1.9.51,20.44,20.44,0,0,1-11.47-.86,18.94,18.94,0,0,1-3.24-1.59,17.76,17.76,0,0,1-2.68-2q-.59-.54-1.1-1.11t-.94-1.14l-.21-.29-.1-.14-.1-.14-.19-.28-.18-.28-.09-.14L65.5,60l-.17-.28-.15-.28L65,59.19a16.9,16.9,0,0,1-.89-2c-.11-.3-.21-.59-.29-.86s-.15-.51-.21-.73l-.08-.31L63.49,55l-.05-.24,0-.2-.07-.36,0,.37,0,.2,0,.24,0,.28c0,.1,0,.21,0,.32s.08.48.13.76.12.58.21.9a17,17,0,0,0,.7,2.14l.12.29.13.3.14.3.07.15.08.15.16.31.17.31.09.16.09.16.19.32q.39.64.87,1.29t1.06,1.28a18.67,18.67,0,0,0,2.66,2.42,20.09,20.09,0,0,0,3.35,2,22.09,22.09,0,0,0,12.64,1.91,21.59,21.59,0,0,0,2.21-.44c.37-.09.72-.2,1.07-.3l.27-.08.26-.09.52-.17a33.29,33.29,0,0,0,4-1.66,40.51,40.51,0,0,0,3.67-2,52.53,52.53,0,0,0,6.17-4.56c1.79-1.52,3.64-3.29,5.51-5.2.93-1,1.87-1.94,2.81-3l2.82-3.06c1.89-2,3.82-4.07,5.83-5.92a45.57,45.57,0,0,1,6.23-4.88A27.6,27.6,0,0,1,131,37.72l.8-.36.8-.31.2-.08.2-.07.4-.14.39-.14.2-.06.2-.06.77-.23.76-.19L136,36l.37-.08.72-.15c.95-.17,1.84-.3,2.66-.38l.6-.06.57,0,.54,0h2.17l.61,0,.44,0,.37,0-.36-.05Z" style="fill: inherit;"/></g><g id="__id46_s9osm1koly"><path d="M215.84,17.73a16.38,16.38,0,0,0-.35-2.42,13.51,13.51,0,0,0-.76-2.37l-.13-.29-.13-.28c-.09-.19-.19-.38-.29-.56a12.1,12.1,0,0,0-.67-1.07l-.18-.26-.19-.25c-.13-.17-.26-.33-.4-.49l-.21-.24-.1-.12-.11-.11L212.09,9l-.23-.22-.23-.21-.23-.21-.48-.4c-.32-.26-.66-.5-1-.73a16.87,16.87,0,0,0-2.13-1.2c-.36-.18-.74-.33-1.11-.49s-.75-.29-1.12-.42A28.64,28.64,0,0,0,201,4a42.24,42.24,0,0,0-4.6-.48c-1.53-.08-3-.09-4.56-.06a85.24,85.24,0,0,0-8.94.74c-2.93.39-5.82.89-8.66,1.48s-5.63,1.25-8.37,2l-2,.57-1,.3-1,.31-2,.63-1,.31-1,.33-2,.66-.49.17-.48.17-1,.34-1.91.69-.49.18c-2.79-1.25-5.83-2.55-9.1-3.83-3.87-1.52-8.07-3-12.6-4.38-2.26-.67-4.6-1.3-7-1.86s-4.91-1-7.48-1.42c-1.28-.18-2.58-.36-3.9-.48-.66-.07-1.32-.12-2-.18l-.5,0-.5,0-1-.06-1,0-.51,0h-.51c-.68,0-1.36,0-2,0h-1l-1,0-1,0-1,.07-.52,0-.52,0-1,.09-1,.12-.53.06-.52.07c-1.4.18-2.8.44-4.21.73l-1.05.23-1,.25-.53.13-.52.14-1,.29-1,.32-.52.16L84.57,3l-.52.17-.52.18-1,.38c-1.37.52-2.73,1.08-4.07,1.72l-.5.23-.5.25-1,.5c-.66.35-1.33.71-2,1.1-.33.19-.64.39-1,.59L73,8.44l-.47.31-.47.32-.23.16-.23.17-.46.33-.45.35c-.3.23-.6.47-.89.71l-.44.37-.43.37-.43.38-.21.19-.21.2-.42.4-.41.41c-.55.54-1.06,1.11-1.57,1.7l-.37.45-.19.22L65,15.7l-.36.46-.34.47c-.23.31-.45.64-.66,1-.11.16-.21.33-.31.5l-.31.5-.29.52-.14.26-.13.26-.27.53-.25.54-.12.27-.11.28-.22.55c-.07.19-.13.38-.2.56s-.13.38-.19.57l-.17.58c0,.1-.05.19-.08.29l-.14.59,0,.15,0,.15-.11.59,0,.15,0,.15,0,.3,0,.3c0,.1,0,.2,0,.3,0,.4-.07.81-.07,1.21,0,.2,0,.41,0,.61l0,.61v.3c0,.1,0,.21,0,.31l0,.31,0,.31A12.77,12.77,0,0,0,61,32.61q.21.59.47,1.16c.09.19.18.37.27.56l.14.27.15.27a13.55,13.55,0,0,0,3.2,3.81l.24.2.25.19.51.36c.34.24.69.45,1,.66s.72.39,1.09.57.74.34,1.12.48a22.13,22.13,0,0,0,4.62,1.23,32.23,32.23,0,0,0,4.66.37,44.07,44.07,0,0,0,4.59-.2q1.14-.11,2.26-.26l1.12-.17.56-.09.55-.1,1.11-.2,1.1-.22.55-.11.55-.12L92.19,41l1.08-.27.54-.13.54-.14,1.07-.29,1.06-.31.53-.15.53-.16,1.05-.32,1-.34.52-.17.52-.18,1-.36,1-.37.51-.19.51-.19,1-.39c1.34-.53,2.67-1.06,4-1.63s2.59-1.15,3.86-1.74L116.31,32l7.29-3.46c3.2-1.52,6.32-3,9.36-4.4l.17.07c1.93.78,3.92,1.61,6,2.39l1.57.6.79.31.8.29,3.28,1.19c.55.21,1.11.39,1.68.58l1.71.58,1.73.59,1.76.56,1.78.56.9.28.91.27,3.68,1.08.47.13.47.13.94.25,1.9.51,1,.26,1,.24,1.94.47,2,.48,2,.43c1.33.29,2.67.59,4,.86l1,.2.51.1.51.09,1,.18,1,.17L180,38l.52.08,1.05.15c.7.09,1.41.19,2.12.26l.53.06.27,0,.27,0,1.08.09.54,0,.54,0,.54,0,.54,0,1.09,0h1.1c.37,0,.73,0,1.1,0l.55,0h.28l.28,0,1.11-.09.55-.06.55-.06.55-.06.55-.09.55-.09.28,0,.28,0,1.1-.23.28-.06.28-.07.55-.14c.37-.1.74-.2,1.1-.32l.27-.09.14,0,.14,0,.54-.19.54-.2.53-.21.53-.22.52-.24.26-.12.26-.13.52-.26.51-.27.25-.14.25-.14c.67-.38,1.32-.79,2-1.23l.47-.34.12-.08.12-.09.23-.18c.31-.23.61-.48.91-.73l.44-.38.22-.19.21-.2.43-.4.41-.42.21-.21.2-.22.39-.44c.25-.31.51-.6.75-.92l.18-.24.09-.12.09-.12.34-.49.16-.25.16-.25.16-.25.15-.26.29-.53.27-.54c.09-.18.17-.37.25-.55l.12-.28.06-.14.05-.14.21-.57c0-.09.06-.19.1-.29l.09-.29.09-.29.08-.3c0-.2.1-.39.15-.59.08-.4.17-.8.21-1.21l0-.3c0-.1,0-.2,0-.3l0-.61v-.6c0-.2,0-.4,0-.6s0-.4,0-.6S215.85,17.94,215.84,17.73Zm-86.36,4.09-.26-.11-.68-.27-.67-.28-2.6-1.09L124,19.55,122.79,19c-1.61-.71-3.14-1.37-4.57-2l-2.09-1-1-.46-1-.46-1.82-.86-.86-.41-.82-.39L107.78,12l-1.24-.61-1.08-.55L103.78,10l-1.34-.68,1.33.72,1.66.9,1.06.58,1.22.64,2.88,1.51.81.41.85.43,1.79.91.95.48,1,.48,2.07,1c1.42.7,2.94,1.4,4.53,2.15l1.21.57,1.25.56,2.58,1.16.66.3.34.15q-3.21,1.51-6.51,3.11l-7.27,3.5-3.71,1.78c-1.24.59-2.48,1.17-3.75,1.72s-2.55,1.1-3.84,1.62l-1,.38-.49.19-.49.18-1,.37-1,.35-.5.18-.5.17-1,.34-1,.32-.51.16-.51.15-1,.31-1,.29-.51.14-.52.13-1,.27-1,.25-.52.12-.52.11-1.05.23-1.06.2-.53.1-.53.09-1.06.17c-.71.11-1.42.2-2.13.27a40.94,40.94,0,0,1-4.27.24,29.13,29.13,0,0,1-4.22-.28,19.22,19.22,0,0,1-4-1,12.78,12.78,0,0,1-3.51-2,10.77,10.77,0,0,1-2.58-3l-.12-.22-.12-.22c-.08-.15-.16-.3-.22-.45s-.27-.6-.38-.92A10.09,10.09,0,0,1,63,29.78l0-.24,0-.24c0-.08,0-.16,0-.25l0-.77c0-.17,0-.34,0-.51,0-.34,0-.68,0-1,0-.09,0-.17,0-.26l0-.26,0-.26v-.13l0-.13.09-.51,0-.13,0-.13.06-.25.06-.25c0-.08,0-.17.06-.25l.14-.5c0-.17.1-.33.15-.5s.11-.33.16-.49l.19-.49.09-.24.1-.24.21-.48.23-.47.11-.24.12-.23.25-.46c.08-.15.18-.3.27-.45s.17-.31.27-.45c.19-.3.38-.59.58-.88l.3-.43.32-.43.16-.21.17-.21.33-.42c.46-.54.92-1.08,1.42-1.59l.37-.38.38-.37.19-.19.2-.18.39-.36.4-.35.4-.35c.27-.23.54-.46.82-.68l.42-.33.43-.32.21-.16.22-.16.43-.31.44-.3.44-.3c.3-.19.59-.39.9-.57.6-.38,1.22-.72,1.84-1.06l.95-.5.48-.25.48-.23c1.27-.64,2.58-1.2,3.89-1.73l1-.38.5-.18.5-.18.5-.18.5-.17,1-.33,1-.3.5-.15.51-.13,1-.27,1-.24c1.35-.31,2.7-.58,4.06-.79l.51-.08.51-.07,1-.14,1-.11L98.88,2l.51,0,1-.09,1-.06,1-.05.5,0,.5,0c.67,0,1.34,0,2,0h1l1,0,1,0,.49,0,.49,0c.65,0,1.3.08,2,.13,1.29.1,2.57.24,3.84.4,2.53.33,5,.75,7.4,1.24s4.73,1.07,7,1.69c4.51,1.23,8.72,2.64,12.61,4.07,3.06,1.13,5.93,2.27,8.59,3.37l-.59.22c-5,1.9-9.72,3.92-14.19,5.94Q132.78,20.27,129.48,21.83Zm83.74-2.33V20l0,.51c0,.08,0,.17,0,.25l0,.25c0,.34-.1.67-.16,1l-.12.49c0,.08,0,.17-.06.25l-.07.24-.07.24c0,.08,0,.16-.08.24l-.17.48,0,.12,0,.12-.1.24c-.07.16-.13.32-.2.47l-.22.46-.24.45-.12.23-.13.22-.13.22-.14.22-.29.43-.07.11-.08.1-.15.21c-.2.28-.42.55-.64.82l-.34.39-.17.2-.18.19-.36.38-.37.37-.19.18-.19.18-.39.35c-.27.23-.53.46-.81.67l-.21.16-.1.08-.11.08-.42.31c-.57.4-1.16.8-1.77,1.15l-.23.14-.23.13-.46.26-.47.24-.23.12-.71.34-.48.21-.48.2-.49.19-.49.18-.12,0-.12,0-.25.08c-.33.12-.66.21-1,.31l-.5.14-.25.07-.26.06-1,.23-.26.05-.26,0-.52.09-.52.09-1,.14-.52.06-1,.1-.26,0-.26,0-.52,0c-.35,0-.7,0-1,0l-1,0h-1.57l-.52,0-.52,0-.52,0-1-.07-.26,0-.26,0-.52,0c-.69-.05-1.38-.13-2.07-.21l-1-.13-.51-.07-.51-.07-1-.15-1-.16-.51-.08-.51-.09-1-.17c-1.35-.23-2.68-.51-4-.77l-2-.39-2-.43-1.94-.43-1-.22-1-.23L162,32.52l-.94-.23-.47-.12-.47-.12-3.68-1-.91-.25-.9-.26L152.81,30l-1.76-.52L149.32,29l-1.71-.54c-.57-.18-1.13-.35-1.68-.54l-3.29-1.11-.81-.27-.8-.29-1.58-.57c-1.89-.66-3.7-1.37-5.47-2l3.42-1.56c4.43-2,9.1-4,14-5.9l1.84-.71,1.87-.69.27-.1c2.22,1,4.26,1.89,6.1,2.73,2.53,1.15,4.69,2.16,6.45,3l2.34,1.1,1.72.8,1,.5.33.16-.33-.17-1-.53-1.69-.84L168,20.24c-1.74-.87-3.88-1.93-6.38-3.15-1.7-.83-3.57-1.72-5.6-2.67h0l.47-.17.47-.17,1.91-.66,1-.33,1-.31,1.95-.63,1-.31,1-.3,2-.57q4-1.12,8.16-2c2.77-.6,5.58-1.12,8.42-1.53a83,83,0,0,1,8.59-.81c1.44-.05,2.88-.06,4.32,0a39.33,39.33,0,0,1,4.27.39,25.87,25.87,0,0,1,4.12.95c.33.11.66.23,1,.35s.64.26,1,.4a14.1,14.1,0,0,1,1.79,1,10.55,10.55,0,0,1,2.87,2.69,9.2,9.2,0,0,1,.53.83c.08.14.16.29.23.43l.11.22.1.22a10.84,10.84,0,0,1,.64,1.89,13.75,13.75,0,0,1,.32,2c0,.17,0,.34,0,.52s0,.34,0,.52S213.23,19.32,213.23,19.49Z" style="fill: inherit;"/></g><g id="__id47_s9osm1koly"><path d="M23.77,223.83a8.68,8.68,0,0,0-3.28-3,8.54,8.54,0,0,0-7.9,0,8.68,8.68,0,0,0-3.28,3A8.53,8.53,0,0,0,8,228.11a8.82,8.82,0,0,0,0,1.11l0,.27,0,.14,0,.13,0,.27c0,.09,0,.18.06.26s.09.35.13.52.05.17.08.25l.08.25.09.24,0,.12.05.12.1.24.11.23c.07.15.16.3.24.44l.13.21.13.21a8.61,8.61,0,0,0,.58.77,8.36,8.36,0,0,0,1.3,1.23,8,8,0,0,0,2.65,1.33,7.86,7.86,0,0,0,1.93.31h.53l-.22,0-.3,0A7.86,7.86,0,0,1,14,236.2a7.94,7.94,0,0,1-1.18-.59,7.74,7.74,0,0,1-1.2-.91,7.87,7.87,0,0,1-1.1-1.25,8,8,0,0,1-.47-.74l-.1-.2c0-.07-.07-.13-.1-.2s-.13-.27-.18-.42l-.08-.21-.07-.22,0-.11,0-.11L9.37,231c0-.07,0-.15-.06-.23s0-.15-.05-.23-.06-.31-.08-.46,0-.16,0-.23l0-.24v-.48a7.86,7.86,0,0,1,.05-1,7.43,7.43,0,0,1,3.4-5.42l.39-.23.2-.11.2-.1A7.23,7.23,0,0,1,15,221.8a7.52,7.52,0,0,1,3.16,0,7.23,7.23,0,0,1,1.61.55l.2.1.2.11.39.23a7.34,7.34,0,0,1,.74.53,7.38,7.38,0,0,1,2.67,4.89,7.89,7.89,0,0,1,.05,1v.48l0,.24c0,.08,0,.16,0,.23s0,.31-.08.46,0,.15-.05.23,0,.15-.05.23l-.06.22,0,.11,0,.11-.07.22-.08.21c-.05.14-.12.28-.18.42l-.1.2-.1.2a8,8,0,0,1-.47.74,7.87,7.87,0,0,1-1.1,1.25,7.73,7.73,0,0,1-1.2.91,7.94,7.94,0,0,1-1.18.59,7.86,7.86,0,0,1-1.85.49l-.3,0-.22,0h.53a7.86,7.86,0,0,0,1.93-.31,8,8,0,0,0,2.65-1.33,8.36,8.36,0,0,0,1.3-1.24,8.63,8.63,0,0,0,.58-.77l.13-.21.13-.21c.08-.15.17-.29.24-.44l.11-.23.1-.24.05-.12,0-.12.09-.24.08-.25c0-.08.06-.17.08-.25s.1-.34.13-.52,0-.18.06-.26l0-.27,0-.13,0-.14,0-.27a8.84,8.84,0,0,0,0-1.11A8.53,8.53,0,0,0,23.77,223.83Z" style="fill: inherit;"/></g><g id="__id48_s9osm1koly"><path d="M21.34,249.27a5.71,5.71,0,0,0-2.16-2,5.6,5.6,0,0,0-5.27,0,5.71,5.71,0,0,0-2.16,2,5.59,5.59,0,0,0-.85,2.84,5.74,5.74,0,0,0,0,.73,5.61,5.61,0,0,0,.12.7,5.32,5.32,0,0,0,.49,1.28,5.2,5.2,0,0,0,.73,1,5.36,5.36,0,0,0,.86.78,5.14,5.14,0,0,0,1.72.81,5,5,0,0,0,1.24.16h.33l-.14,0-.19,0a5,5,0,0,1-1.15-.35,4.84,4.84,0,0,1-2.11-1.77,4.94,4.94,0,0,1-.27-.46,4.85,4.85,0,0,1-.22-.51,4.51,4.51,0,0,1-.26-1.1,4.72,4.72,0,0,1,0-.57,4.78,4.78,0,0,1,0-.58,4.45,4.45,0,0,1,2.56-3.43,4.57,4.57,0,0,1,3.76,0A4.45,4.45,0,0,1,21,252.2a4.79,4.79,0,0,1,0,.58,4.73,4.73,0,0,1,0,.57,4.66,4.66,0,0,1-.1.56c0,.09,0,.18-.07.27l0,.13,0,.13a4.86,4.86,0,0,1-.22.51,5,5,0,0,1-.27.46,4.84,4.84,0,0,1-2.11,1.77,5,5,0,0,1-1.15.35l-.19,0-.14,0H17a5,5,0,0,0,1.24-.16,5.13,5.13,0,0,0,1.72-.81,5.36,5.36,0,0,0,.86-.78,5.19,5.19,0,0,0,.73-1l.08-.15.07-.15c0-.1.09-.21.13-.31a5.5,5.5,0,0,0,.21-.66,5.63,5.63,0,0,0,.12-.7,5.75,5.75,0,0,0,0-.73A5.59,5.59,0,0,0,21.34,249.27Z" style="fill: inherit;"/></g><g id="__id49_s9osm1koly"><path d="M20.81,273.66a5.08,5.08,0,0,0-1.92-1.8,5,5,0,0,0-4.7,0,5.08,5.08,0,0,0-1.92,1.8,5,5,0,0,0-.74,2.53,5.09,5.09,0,0,0,0,.64,5,5,0,0,0,.11.62,4.7,4.7,0,0,0,.44,1.13,4.63,4.63,0,0,0,.65.92,4.72,4.72,0,0,0,.77.68,4.51,4.51,0,0,0,1.52.7,4.34,4.34,0,0,0,1.09.13h.17l-.16,0a4.33,4.33,0,0,1-1-.31,4.23,4.23,0,0,1-1.26-.87,4.14,4.14,0,0,1-1-1.54,3.89,3.89,0,0,1-.21-.95,4.06,4.06,0,0,1,0-.49,4.12,4.12,0,0,1,0-.5,3.82,3.82,0,0,1,2.21-2.92,3.94,3.94,0,0,1,3.19,0,3.82,3.82,0,0,1,2.21,2.92,4.13,4.13,0,0,1,0,.5,4.08,4.08,0,0,1,0,.49,3.89,3.89,0,0,1-.21,1,4.14,4.14,0,0,1-1,1.54,4.23,4.23,0,0,1-1.26.87,4.33,4.33,0,0,1-1,.31l-.16,0h.17a4.33,4.33,0,0,0,1.09-.13,4.51,4.51,0,0,0,1.53-.7,4.72,4.72,0,0,0,.77-.68,4.62,4.62,0,0,0,.65-.92,4.7,4.7,0,0,0,.44-1.13,5,5,0,0,0,.11-.62,5.1,5.1,0,0,0,0-.64A5,5,0,0,0,20.81,273.66Z" style="fill: inherit;"/></g><g id="__id50_s9osm1koly"><path d="M15.81 291.5H17.28V500H15.81z" style="fill: inherit;"/></g><g id="__id51_s9osm1koly"><path d="M32.5,131.1l.06-.8,0-.2c0-.07,0-.14,0-.2l0-.41,0-.42c0-.07,0-.14,0-.21l0-.21.14-.85.18-.86a27.6,27.6,0,0,1,1-3.5,45.57,45.57,0,0,1,3.44-7.13c1.38-2.36,2.95-4.67,4.54-7l2.39-3.41c.79-1.13,1.55-2.26,2.29-3.37,1.47-2.23,2.8-4.41,3.91-6.49a52.53,52.53,0,0,0,3.14-7,40.5,40.5,0,0,0,1.22-4,33.28,33.28,0,0,0,.77-4.28l.06-.55,0-.27,0-.28c0-.37.05-.73.06-1.11a21.59,21.59,0,0,0,0-2.25,22.09,22.09,0,0,0-4.55-11.95,20.1,20.1,0,0,0-2.69-2.84,18.67,18.67,0,0,0-2.93-2.09Q45,59,44.24,58.68T42.8,58.1L42.44,58l-.17-.06-.17-.05-.34-.1-.34-.09-.17,0-.17,0-.33-.07-.32-.06-.31-.06a17,17,0,0,0-2.24-.23c-.33,0-.64,0-.92,0l-.77,0-.32,0-.28,0-.24,0-.2,0-.36,0h1.42l.76,0c.28,0,.58.06.9.1a16.89,16.89,0,0,1,2.15.45l.3.09.3.09.31.1.16.05.16.06.32.12.32.13.16.07.16.07.32.14q.65.3,1.31.68t1.32.84a17.76,17.76,0,0,1,2.54,2.19,18.94,18.94,0,0,1,2.24,2.83,20.44,20.44,0,0,1,3.28,11,19.59,19.59,0,0,1-.09,2c0,.32-.08.66-.12,1l0,.25,0,.25-.08.49a32.83,32.83,0,0,1-.91,3.87c-.37,1.26-.81,2.48-1.28,3.66a65.77,65.77,0,0,1-3.09,6.52c-1.06,2-2.29,4.11-3.65,6.35-.68,1.12-1.38,2.26-2.11,3.42s-1.46,2.34-2.2,3.54c-1.47,2.4-2.93,4.9-4.18,7.45a44.91,44.91,0,0,0-3,7.73,28.28,28.28,0,0,0-.76,3.8l-.1.92-.06.9,0,.22c0,.07,0,.15,0,.22v.87c0,.07,0,.14,0,.21v1l0,.81c0,.13,0,.26,0,.39l0,.39c0,.26.05.51.08.75.13,1,.28,1.89.47,2.7l.13.6c0,.19.1.38.14.56l.14.53c0,.09,0,.17.07.25l.07.24.14.46c0,.15.09.29.13.42l.25.73c.07.22.15.41.21.57l.16.42.13.34-.09-.35-.11-.43c0-.17-.1-.37-.15-.59l-.17-.74c0-.14-.06-.28-.09-.43l-.09-.46,0-.24c0-.08,0-.17,0-.25l-.08-.53c0-.18-.06-.37-.09-.56l-.07-.6c-.1-.81-.16-1.71-.2-2.67,0-.24,0-.49,0-.74v-.38c0-.13,0-.25,0-.38Z" style="fill: inherit;"/></g><g id="__id52_s9osm1koly"><path d="M68.9,73.72a20.1,20.1,0,0,0-2-3.35,18.67,18.67,0,0,0-2.42-2.66q-.64-.57-1.28-1.06t-1.29-.87l-.32-.19-.16-.09-.16-.09-.31-.17-.31-.16L60.47,65l-.15-.07-.3-.14-.3-.13-.29-.12a17,17,0,0,0-2.14-.7c-.32-.08-.62-.15-.9-.21l-.76-.13-.32,0-.28,0-.24,0-.2,0-.37,0,.36.07.2,0,.24.05.28.06.31.08.73.21c.26.09.55.18.86.29a16.9,16.9,0,0,1,2,.89l.27.15.28.15.28.17.14.08.14.09.28.18.28.19.14.1.14.1.29.21q.57.43,1.14.94t1.11,1.1a17.76,17.76,0,0,1,2,2.68,18.94,18.94,0,0,1,1.59,3.24,20.44,20.44,0,0,1,.86,11.47,19.6,19.6,0,0,1-.51,1.9c-.1.31-.22.63-.33.94l-.08.24-.09.23-.18.47a32.83,32.83,0,0,1-1.71,3.58c-.63,1.15-1.32,2.25-2,3.3a65.77,65.77,0,0,1-4.41,5.72c-1.45,1.71-3.12,3.53-4.92,5.42-.9.95-1.83,1.91-2.79,2.89s-1.93,2-2.91,3c-2,2-3.9,4.16-5.67,6.39a44.91,44.91,0,0,0-4.57,6.91,28.28,28.28,0,0,0-1.55,3.55l-.3.87-.25.87-.06.21-.05.21-.1.43-.1.42c0,.07,0,.14,0,.21l0,.21-.16.82-.13.8c0,.13,0,.26-.06.39l0,.39c0,.26-.06.51-.08.75-.08,1-.13,1.91-.12,2.74v.61c0,.2,0,.39,0,.58l0,.54c0,.09,0,.17,0,.26l0,.25,0,.47c0,.15,0,.3,0,.44l.09.76c0,.23.06.43.08.6l.07.44.05.36,0-.37,0-.44c0-.18,0-.38,0-.61v-.76c0-.14,0-.28,0-.44v-.72c0-.08,0-.17,0-.26l0-.54c0-.18,0-.37,0-.57l.06-.6c.07-.82.21-1.71.38-2.66,0-.24.1-.48.15-.72L36,136c0-.12.06-.25.09-.37l.19-.76.23-.77.06-.2.06-.2.14-.39.14-.4.07-.2.08-.2.31-.8.36-.8a27.6,27.6,0,0,1,1.74-3.21,45.57,45.57,0,0,1,4.88-6.23c1.85-2,3.88-3.94,5.92-5.83l3.06-2.82c1-.94,2-1.87,3-2.81,1.91-1.86,3.67-3.72,5.2-5.51A52.53,52.53,0,0,0,66,98.39a40.51,40.51,0,0,0,2-3.67,33.29,33.29,0,0,0,1.66-4l.17-.52.09-.26.08-.27c.1-.35.21-.7.3-1.07a21.59,21.59,0,0,0,.44-2.21A22.09,22.09,0,0,0,68.9,73.72Z" style="fill: inherit;"/></g><g id="__id53_s9osm1koly"><path d="M38.79,187.42c0-.18,0-.36,0-.54l0-.54c0-.18,0-.36,0-.54l-.09-1.08,0-.27c0-.09,0-.18,0-.27l-.06-.53c-.07-.71-.17-1.42-.26-2.12,0-.35-.1-.7-.15-1.05L38,180c0-.17-.06-.35-.08-.52l-.17-1-.18-1-.09-.51-.1-.51-.2-1c-.26-1.36-.57-2.69-.86-4l-.43-2c-.16-.66-.32-1.31-.48-2l-.47-1.94c-.08-.32-.16-.65-.24-1l-.26-1-.51-1.9-.25-.94-.13-.47c0-.16-.08-.31-.13-.47L32.36,156c-.09-.3-.17-.61-.27-.91l-.28-.9-.56-1.78-.56-1.76L30.1,149l-.58-1.71c-.19-.56-.38-1.13-.58-1.68l-1.19-3.28c-.1-.27-.19-.54-.29-.8l-.31-.79-.6-1.57c-.78-2.08-1.61-4.07-2.39-6l-.07-.17c1.41-3,2.88-6.16,4.4-9.36L32,116.31l1.76-3.74c.59-1.27,1.18-2.55,1.74-3.86s1.1-2.63,1.63-4l.39-1,.19-.51.19-.51.37-1,.36-1,.18-.52.17-.52.34-1,.32-1.05.16-.53.15-.53.31-1.06.29-1.07.14-.54.13-.54L41,92.19l.25-1.09.12-.55.11-.55.22-1.1.2-1.11.1-.55.09-.56q.09-.56.17-1.12.15-1.12.26-2.26a44.07,44.07,0,0,0,.2-4.59,32.23,32.23,0,0,0-.37-4.66,22.13,22.13,0,0,0-1.23-4.62c-.15-.38-.31-.75-.48-1.12s-.37-.73-.57-1.09-.42-.71-.66-1c-.11-.17-.24-.34-.36-.51l-.19-.25-.2-.24A13.55,13.55,0,0,0,34.87,62l-.27-.15-.27-.14-.56-.27q-.57-.26-1.16-.47a12.76,12.76,0,0,0-2.44-.59l-.31,0-.31,0-.31,0h-.3l-.61,0h-.61c-.41,0-.81,0-1.21.07l-.3,0-.3,0-.3,0-.15,0-.15,0-.59.11-.15,0-.15,0-.59.14-.29.08-.58.17c-.19.05-.38.12-.57.19l-.56.2-.55.22-.28.11-.27.12-.54.25-.53.27-.26.13-.26.14L18.6,63l-.5.31-.5.31c-.33.22-.65.43-1,.66l-.47.34L15.7,65l-.23.18-.22.19-.45.37c-.58.51-1.16,1-1.7,1.57l-.41.41-.4.42-.2.21-.19.21-.38.43-.37.43-.37.44c-.24.3-.48.59-.71.89l-.35.45-.33.46-.17.23-.16.23-.32.47L8.44,73l-.31.47c-.2.32-.4.64-.59,1-.39.65-.75,1.31-1.1,2l-.5,1-.25.5-.23.5c-.64,1.34-1.19,2.7-1.72,4.07l-.38,1c-.06.17-.12.34-.18.52L3,84.57l-.17.52c-.06.17-.11.35-.16.52l-.32,1-.29,1-.14.52-.13.53c-.08.35-.18.7-.25,1l-.23,1.05C1,92.25.78,93.65.59,95.06l-.07.52c0,.17,0,.35-.06.53l-.12,1-.09,1,0,.52,0,.52c0,.35,0,.69-.07,1l0,1c0,.35,0,.69,0,1q0,.26,0,.52c0,.17,0,.34,0,.51,0,.69,0,1.37,0,2,0,.17,0,.34,0,.51s0,.34,0,.51q0,.51,0,1c0,.34,0,.67.06,1l0,.5c0,.17,0,.33,0,.5.06.67.11,1.33.18,2,.13,1.32.3,2.62.48,3.9.39,2.56.87,5.06,1.42,7.48s1.19,4.76,1.86,7c1.34,4.52,2.86,8.72,4.38,12.6,1.29,3.27,2.59,6.3,3.83,9.1l-.18.49c-.23.63-.46,1.27-.69,1.91l-.34,1-.17.48-.17.49-.66,2-.33,1-.31,1-.63,2c-.11.33-.21.67-.31,1l-.3,1q-.29,1-.57,2-1.11,4.11-2,8.37c-.59,2.84-1.09,5.73-1.48,8.66a85.24,85.24,0,0,0-.74,8.94c0,1.51,0,3,.06,4.56A42.23,42.23,0,0,0,4,201a28.64,28.64,0,0,0,1.12,4.57c.13.38.27.75.42,1.12s.31.74.49,1.11a16.87,16.87,0,0,0,1.2,2.13c.23.34.47.68.73,1,.13.16.26.32.4.48l.21.23.21.23.22.23.23.22.11.11.12.1.24.21c.16.13.32.27.49.4l.25.19.26.18a12.1,12.1,0,0,0,1.07.67l.56.29.28.13.29.13a13.51,13.51,0,0,0,2.37.76,16.38,16.38,0,0,0,2.42.35l.6,0h1.8l.61,0,.3,0,.3,0c.41,0,.8-.14,1.21-.21l.59-.15.3-.08.29-.09.29-.09.29-.1.57-.21.14-.05.14-.06.28-.12c.18-.08.37-.16.55-.25l.54-.27.53-.29.26-.15.25-.16.25-.16.25-.16.49-.34.12-.09.12-.09.24-.18c.32-.24.62-.49.92-.75l.44-.39.22-.2.21-.21.42-.41.4-.43.2-.21.19-.22.38-.44c.25-.3.5-.6.73-.91l.18-.23.09-.12.08-.12.34-.47c.44-.64.85-1.29,1.23-2l.14-.25.14-.25.27-.51.26-.52.13-.26.12-.26.24-.52.22-.53c.08-.18.14-.35.21-.53s.14-.36.2-.54l.19-.54,0-.14,0-.14.09-.27c.12-.36.22-.73.32-1.1l.14-.55.07-.28.06-.28.23-1.1c0-.09,0-.18,0-.28l0-.28.09-.55c0-.18.06-.37.09-.55l.06-.55.06-.55c0-.18,0-.37.06-.55q0-.55.09-1.11l0-.28v-.28c0-.18,0-.37,0-.55,0-.37,0-.73,0-1.1s0-.73,0-1.1,0-.73,0-1.09C38.8,187.78,38.79,187.6,38.79,187.42ZM9.3,142.17c-1.43-3.89-2.84-8.1-4.07-12.61-.61-2.26-1.19-4.59-1.69-7s-.92-4.87-1.24-7.4c-.15-1.27-.3-2.55-.4-3.84-.06-.65-.09-1.3-.13-2,0-.16,0-.33,0-.49l0-.49c0-.33,0-.66,0-1s0-.66,0-1c0-.17,0-.33,0-.5s0-.33,0-.5c0-.66,0-1.33,0-2,0-.17,0-.33,0-.5s0-.34,0-.5c0-.34,0-.67.05-1l.06-1c0-.34.06-.67.09-1l0-.51L2,98.37l.11-1,.14-1c0-.17,0-.34.07-.51l.08-.51c.21-1.36.48-2.71.79-4.06l.24-1c.08-.34.18-.67.27-1l.13-.51.15-.5.3-1,.33-1c.06-.17.1-.33.17-.5l.18-.5.18-.5c.06-.17.12-.33.18-.5l.38-1c.53-1.31,1.09-2.61,1.73-3.89l.23-.48.25-.48.5-.95c.34-.62.69-1.24,1.06-1.84.18-.3.38-.6.57-.9l.3-.44.3-.44.31-.43.16-.22.16-.21.32-.43.33-.42c.22-.28.45-.55.68-.82l.35-.4.35-.4.36-.39.18-.2.19-.19.37-.38.38-.37c.51-.5,1-1,1.59-1.42l.42-.33.21-.17.21-.16.43-.32.43-.3c.29-.21.59-.39.88-.58.15-.1.3-.18.45-.27l.45-.27.46-.25.23-.12.24-.11.47-.23.48-.21.24-.1.24-.09.49-.19.49-.16.5-.15.5-.14.25-.06.25-.06.25-.06.13,0,.13,0,.51-.09.13,0H26l.26,0,.26,0,.26,0c.34,0,.68-.05,1,0h.51L29,63l.25,0,.24,0,.24,0a10.09,10.09,0,0,1,1.91.49q.47.17.92.38l.45.22.22.12.22.12a10.77,10.77,0,0,1,3,2.58,12.78,12.78,0,0,1,2,3.51,19.22,19.22,0,0,1,1,4,29.13,29.13,0,0,1,.28,4.22A40.93,40.93,0,0,1,39.47,83c-.08.71-.17,1.42-.27,2.13-.05.35-.11.71-.17,1.06l-.09.53-.1.53-.2,1.06-.23,1.05-.11.52-.12.52-.25,1-.27,1-.13.52-.14.51-.29,1-.31,1-.15.51-.16.51-.32,1-.34,1-.17.5-.18.5-.35,1-.37,1-.18.49-.19.49-.38,1c-.52,1.3-1.06,2.58-1.62,3.84s-1.14,2.51-1.72,3.75l-1.78,3.71-3.5,7.27q-1.59,3.3-3.11,6.51l-.15-.34-.3-.66L20.64,125l-.56-1.25-.57-1.21c-.75-1.59-1.44-3.11-2.15-4.53l-1-2.07c-.16-.33-.32-.66-.48-1L15.4,114l-.91-1.79-.43-.85c-.14-.28-.27-.55-.41-.81l-1.51-2.88-.64-1.22-.58-1.06-.9-1.66-.72-1.33.68,1.34.86,1.69.55,1.08.61,1.24,1.43,2.91.39.82.41.86.86,1.82.46,1c.15.32.3.66.46,1l1,2.09c.67,1.43,1.33,3,2,4.57l.54,1.22.53,1.26,1.09,2.6.28.67.27.68.11.26q-1.55,3.3-3,6.49c-2,4.47-4,9.2-5.94,14.19l-.22.59C11.57,148.09,10.43,145.23,9.3,142.17ZM36.77,190.1c0,.35,0,.7,0,1l0,.52,0,.26,0,.26-.1,1c0,.18,0,.35-.06.52l-.14,1-.09.52-.09.52,0,.26c0,.09,0,.17-.05.26l-.23,1-.06.26-.07.25-.14.5c-.1.33-.2.67-.31,1l-.08.25,0,.12,0,.12-.18.49c-.06.16-.13.32-.19.49s-.13.32-.2.48l-.21.48-.34.71-.12.23-.24.47-.26.46-.13.23-.14.23c-.35.61-.75,1.19-1.15,1.77l-.31.42-.08.11-.08.1-.16.21c-.21.28-.44.54-.67.81l-.35.39-.18.19-.18.19-.37.37-.38.36-.19.18-.2.17-.39.34c-.27.22-.54.44-.82.64l-.21.15-.1.08-.11.07-.43.29-.22.14-.22.13-.22.13-.23.12-.45.24-.46.22c-.15.08-.31.14-.47.2l-.24.1-.12,0-.12,0-.48.17-.24.08-.24.07-.24.07-.25.06L22,213c-.33.05-.66.13-1,.16l-.25,0-.25,0-.51,0H19l-.52,0-.52,0a13.74,13.74,0,0,1-2-.32,10.84,10.84,0,0,1-1.89-.64l-.22-.1L13.6,212l-.43-.23a9.2,9.2,0,0,1-.83-.53,10.55,10.55,0,0,1-2.69-2.87,14.1,14.1,0,0,1-1-1.79c-.14-.31-.27-.63-.4-1s-.24-.65-.35-1A25.87,25.87,0,0,1,7,200.52a39.32,39.32,0,0,1-.39-4.27c-.06-1.44-.05-2.88,0-4.32a83,83,0,0,1,.81-8.59c.41-2.84.93-5.65,1.53-8.42s1.28-5.49,2-8.16q.28-1,.57-2l.3-1c.1-.33.2-.65.31-1l.63-1.95.31-1,.33-1,.66-1.91.17-.47.17-.47v0c.95,2,1.84,3.9,2.67,5.6,1.22,2.5,2.28,4.64,3.15,6.38l1.16,2.31.84,1.69.53,1,.17.33-.16-.33-.5-1-.8-1.72L20.38,168c-.83-1.76-1.84-3.93-3-6.45-.84-1.84-1.76-3.88-2.73-6.1l.1-.27c.23-.63.45-1.25.69-1.87l.71-1.84c1.9-4.89,3.9-9.56,5.9-14q.76-1.69,1.56-3.42c.67,1.76,1.37,3.58,2,5.47l.57,1.58.29.8c.09.27.18.54.27.81l1.11,3.29c.19.55.36,1.12.54,1.68l.54,1.71.55,1.73.52,1.76.52,1.78.26.9c.09.3.16.6.25.91l1,3.68c0,.15.08.31.12.47l.12.47.23.94.47,1.89.23,1c.08.32.14.64.22,1l.43,1.94c.14.65.29,1.3.43,2l.39,2c.26,1.32.53,2.66.77,4l.17,1,.09.51.08.51.16,1,.15,1c0,.17.05.34.07.51l.07.51c0,.34.09.69.13,1,.07.69.15,1.38.21,2.07l0,.52c0,.09,0,.17,0,.26l0,.26.07,1c0,.17,0,.35,0,.52s0,.35,0,.52,0,.35,0,.52,0,.35,0,.52q0,.52,0,1Z" style="fill: inherit;"/></g></svg>